<svg width="60" height="60" viewBox="0 0 60 60" fill="none" xmlns="http://www.w3.org/2000/svg">
<g clip-path="url(#clip0_608_403)">
<rect width="60" height="60" fill="url(#paint0_linear_608_403)"/>
<path fill-rule="evenodd" clip-rule="evenodd" d="M42.8337 46.9744C43.57 48.2498 45.201 48.6868 46.4764 47.9505C47.7519 47.2141 48.1888 45.5832 47.4525 44.3077L44.773 39.6667H48.667C50.1397 39.6667 51.3337 38.4728 51.3337 37C51.3337 35.5272 50.1397 34.3333 48.667 34.3333H41.6938L33.9998 21.007C32.71 22.7751 31.3382 25.0192 31.8355 27.9251L42.8337 46.9744ZM26.9211 19.413L24.167 14.6428C23.4306 13.3673 23.8676 11.7364 25.1431 11C26.4185 10.2637 28.0494 10.7007 28.7858 11.9761L30.0003 14.0797L31.2148 11.9761C31.9512 10.7007 33.5821 10.2637 34.8575 11C36.133 11.7364 36.57 13.3673 35.8336 14.6428L24.4652 34.3333H33.1365C34.7224 34.8776 36.0003 36.6635 36.0003 38.3333C36.0003 38.7234 35.9078 39.1809 35.7567 39.6667H11.3337C9.8609 39.6667 8.66699 38.4728 8.66699 37C8.66699 35.5272 9.8609 34.3333 11.3337 34.3333H18.3068L26.9211 19.413ZM16.6669 40.6667C17.7943 40.6667 18.8025 41.2625 19.8931 42.2525L17.1669 46.9744C16.4305 48.2498 14.7996 48.6868 13.5242 47.9505C12.2487 47.2141 11.8117 45.5832 12.5481 44.3077L14.4681 40.9823C14.9933 40.8216 15.2843 40.7427 15.5805 40.704C15.8662 40.6667 16.1568 40.6667 16.6669 40.6667Z" fill="white"/>
</g>
<defs>
<linearGradient id="paint0_linear_608_403" x1="30" y1="0" x2="30" y2="60" gradientUnits="userSpaceOnUse">
<stop stop-color="#15C7FA"/>
<stop offset="1" stop-color="#216FF0"/>
</linearGradient>
<clipPath id="clip0_608_403">
<rect width="60" height="60" rx="13.28" fill="white"/>
</clipPath>
</defs>
</svg>
