<svg width="60" height="60" viewBox="0 0 60 60" fill="none" xmlns="http://www.w3.org/2000/svg">
<g clip-path="url(#clip0_801_3116)">
<rect width="60" height="60" fill="white"/>
<rect width="60" height="60" fill="url(#paint0_linear_801_3116)"/>
<path fill-rule="evenodd" clip-rule="evenodd" d="M25.0507 33.6597L22.3754 30.9845L10.1218 43.2382C10.1815 43.274 10.2426 43.3079 10.305 43.3397C10.9468 43.6667 11.7868 43.6667 13.467 43.6667H46.5337C48.2138 43.6667 49.0539 43.6667 49.6956 43.3397C49.7581 43.3079 49.8192 43.274 49.879 43.2381L37.6254 30.9845L34.9502 33.6597C34.1058 34.5042 33.0992 35.0877 32.0308 35.4105C31.3698 35.6101 30.6851 35.71 30.0004 35.71C28.209 35.71 26.4175 35.0266 25.0507 33.6597ZM50.9051 42.2118C50.941 42.1521 50.9749 42.0911 51.0067 42.0287C51.3337 41.3869 51.3337 40.5469 51.3337 38.8667V21.1334C51.3337 19.4532 51.3337 18.6131 51.0067 17.9714C50.9657 17.8909 50.9212 17.8125 50.8734 17.7365L38.6516 29.9583L50.9051 42.2118ZM49.9306 16.7937L34.0074 32.7169C33.1775 33.5468 32.1543 34.0654 31.0827 34.2729C30.3497 34.4148 29.5941 34.4111 28.8623 34.2618C27.8111 34.0473 26.809 33.5324 25.9935 32.7169L10.0702 16.7936C10.1462 16.7458 10.2246 16.7014 10.305 16.6604C10.9468 16.3334 11.7868 16.3334 13.467 16.3334H46.5337C48.2138 16.3334 49.0539 16.3334 49.6956 16.6604C49.7761 16.7014 49.8545 16.7459 49.9306 16.7937ZM9.12736 17.7364C9.07954 17.8125 9.03501 17.8909 8.99397 17.9714C8.66699 18.6131 8.66699 19.4532 8.66699 21.1334V38.8667C8.66699 40.5469 8.66699 41.3869 8.99397 42.0287C9.02578 42.0911 9.05968 42.1522 9.09559 42.212L21.3493 29.9583L9.12736 17.7364Z" fill="url(#paint1_linear_801_3116)"/>
</g>
<defs>
<linearGradient id="paint0_linear_801_3116" x1="30" y1="0" x2="30" y2="60" gradientUnits="userSpaceOnUse">
<stop stop-color="#1A6AE7"/>
<stop offset="1" stop-color="#20C2F4"/>
</linearGradient>
<linearGradient id="paint1_linear_801_3116" x1="30.0003" y1="16.3334" x2="30.0003" y2="43.6667" gradientUnits="userSpaceOnUse">
<stop stop-color="#F7F7F7"/>
<stop offset="1" stop-color="#F9F9F9"/>
</linearGradient>
<clipPath id="clip0_801_3116">
<rect width="60" height="60" rx="13.28" fill="white"/>
</clipPath>
</defs>
</svg>
