<svg width="60" height="60" viewBox="0 0 60 60" fill="none" xmlns="http://www.w3.org/2000/svg">
<g clip-path="url(#clip0_801_510)">
<rect width="60" height="60" fill="white"/>
<rect x="22" y="4.00012" width="16" height="24.3333" rx="8" fill="url(#paint0_linear_801_510)"/>
<rect x="22" y="31.6667" width="16" height="24.3333" rx="8" fill="url(#paint1_linear_801_510)"/>
<rect x="4" y="38" width="16" height="24.3333" rx="8" transform="rotate(-90 4 38)" fill="url(#paint2_linear_801_510)"/>
<rect x="31.667" y="38" width="16" height="24.3333" rx="8" transform="rotate(-90 31.667 38)" fill="url(#paint3_linear_801_510)"/>
<rect x="5.95801" y="17.2721" width="16" height="24.3333" rx="8" transform="rotate(-45 5.95801 17.2721)" fill="url(#paint4_linear_801_510)"/>
<rect x="25.5215" y="36.8354" width="16" height="24.3333" rx="8" transform="rotate(-45 25.5215 36.8354)" fill="url(#paint5_linear_801_510)"/>
<rect x="42.7275" y="5.95837" width="16" height="24.3333" rx="8" transform="rotate(45 42.7275 5.95837)" fill="url(#paint6_linear_801_510)"/>
<rect x="23.165" y="25.5217" width="16" height="24.3333" rx="8" transform="rotate(45 23.165 25.5217)" fill="url(#paint7_linear_801_510)"/>
<g opacity="0.7" style="mix-blend-mode:multiply">
<path d="M28.108 28.1084C25.2092 27.4056 22.9274 25.1238 22.2246 22.225C25.1235 22.9278 27.4053 25.2096 28.108 28.1084Z" fill="url(#paint8_linear_801_510)"/>
</g>
<g opacity="0.7" style="mix-blend-mode:multiply">
<path d="M28.108 31.8917C27.4053 34.7906 25.1235 37.0724 22.2246 37.7752C22.9274 34.8763 25.2092 32.5945 28.108 31.8917Z" fill="url(#paint9_linear_801_510)"/>
</g>
<g opacity="0.7" style="mix-blend-mode:multiply">
<path d="M37.775 22.225C37.0722 25.1238 34.7904 27.4056 31.8916 28.1084C32.5944 25.2096 34.8762 22.9278 37.775 22.225Z" fill="url(#paint10_linear_801_510)"/>
</g>
<g opacity="0.7" style="mix-blend-mode:multiply">
<path d="M37.775 37.7752C34.8762 37.0724 32.5944 34.7906 31.8916 31.8917C34.7904 32.5945 37.0722 34.8763 37.775 37.7752Z" fill="url(#paint11_linear_801_510)"/>
</g>
<g opacity="0.7" style="mix-blend-mode:multiply">
<path d="M27.3253 30.0001C24.7786 31.5529 21.5516 31.5529 19.0049 30.0001C21.5516 28.4472 24.7786 28.4472 27.3253 30.0001Z" fill="url(#paint12_linear_801_510)"/>
</g>
<g opacity="0.7" style="mix-blend-mode:multiply">
<path d="M29.9996 27.325C28.4467 24.7782 28.4467 21.5513 29.9996 19.0045C31.5525 21.5513 31.5525 24.7782 29.9996 27.325Z" fill="url(#paint13_linear_801_510)"/>
</g>
<g opacity="0.7" style="mix-blend-mode:multiply">
<path d="M40.9952 30.0001C38.4485 31.5529 35.2215 31.5529 32.6748 30.0001C35.2215 28.4472 38.4485 28.4472 40.9952 30.0001Z" fill="url(#paint14_linear_801_510)"/>
</g>
<g opacity="0.7" style="mix-blend-mode:multiply">
<path d="M29.9996 32.6752C31.5525 35.2219 31.5525 38.4489 29.9996 40.9956C28.4467 38.4489 28.4467 35.2219 29.9996 32.6752Z" fill="url(#paint15_linear_801_510)"/>
</g>
</g>
<defs>
<linearGradient id="paint0_linear_801_510" x1="30" y1="4.00012" x2="30" y2="28.3335" gradientUnits="userSpaceOnUse">
<stop stop-color="#F69B35"/>
<stop offset="1" stop-color="#FFE51C"/>
</linearGradient>
<linearGradient id="paint1_linear_801_510" x1="30" y1="31.6667" x2="30" y2="56.0001" gradientUnits="userSpaceOnUse">
<stop stop-color="#897FBB"/>
<stop offset="1" stop-color="#5DAFE5"/>
</linearGradient>
<linearGradient id="paint2_linear_801_510" x1="12" y1="38" x2="12" y2="62.3333" gradientUnits="userSpaceOnUse">
<stop offset="0.0001" stop-color="#CC8BBD"/>
<stop offset="1" stop-color="#EE585F"/>
</linearGradient>
<linearGradient id="paint3_linear_801_510" x1="39.667" y1="38" x2="39.667" y2="62.3333" gradientUnits="userSpaceOnUse">
<stop stop-color="#67C17F"/>
<stop offset="1" stop-color="#C7D942"/>
</linearGradient>
<linearGradient id="paint4_linear_801_510" x1="13.958" y1="17.2721" x2="13.958" y2="41.6054" gradientUnits="userSpaceOnUse">
<stop stop-color="#F25D69"/>
<stop offset="1" stop-color="#F6933F"/>
</linearGradient>
<linearGradient id="paint5_linear_801_510" x1="33.5215" y1="36.8354" x2="33.5215" y2="61.1688" gradientUnits="userSpaceOnUse">
<stop stop-color="#65B8E5"/>
<stop offset="1" stop-color="#68C181"/>
</linearGradient>
<linearGradient id="paint6_linear_801_510" x1="50.7275" y1="5.95837" x2="50.7275" y2="30.2917" gradientUnits="userSpaceOnUse">
<stop stop-color="#FAE417"/>
<stop offset="1" stop-color="#C9DB41"/>
</linearGradient>
<linearGradient id="paint7_linear_801_510" x1="31.165" y1="25.5217" x2="31.165" y2="49.8551" gradientUnits="userSpaceOnUse">
<stop stop-color="#CC8BBD"/>
<stop offset="1" stop-color="#9A90C4"/>
</linearGradient>
<linearGradient id="paint8_linear_801_510" x1="3.99967" y1="30" x2="28.333" y2="30" gradientUnits="userSpaceOnUse">
<stop offset="0.0001" stop-color="#CC8BBD"/>
<stop offset="1" stop-color="#EE585F"/>
</linearGradient>
<linearGradient id="paint9_linear_801_510" x1="3.99967" y1="30.0001" x2="28.333" y2="30.0001" gradientUnits="userSpaceOnUse">
<stop offset="0.0001" stop-color="#CC8BBD"/>
<stop offset="1" stop-color="#EE585F"/>
</linearGradient>
<linearGradient id="paint10_linear_801_510" x1="31.6667" y1="30" x2="56" y2="30" gradientUnits="userSpaceOnUse">
<stop stop-color="#67C17F"/>
<stop offset="1" stop-color="#C7D942"/>
</linearGradient>
<linearGradient id="paint11_linear_801_510" x1="31.6667" y1="30.0001" x2="56" y2="30.0001" gradientUnits="userSpaceOnUse">
<stop stop-color="#67C17F"/>
<stop offset="1" stop-color="#C7D942"/>
</linearGradient>
<linearGradient id="paint12_linear_801_510" x1="28.822" y1="31.1786" x2="11.6157" y2="48.3849" gradientUnits="userSpaceOnUse">
<stop stop-color="#CC8BBD"/>
<stop offset="1" stop-color="#9A90C4"/>
</linearGradient>
<linearGradient id="paint13_linear_801_510" x1="11.6149" y1="11.6153" x2="28.8211" y2="28.8216" gradientUnits="userSpaceOnUse">
<stop stop-color="#F25D69"/>
<stop offset="1" stop-color="#F6933F"/>
</linearGradient>
<linearGradient id="paint14_linear_801_510" x1="48.3844" y1="11.6153" x2="31.1781" y2="28.8216" gradientUnits="userSpaceOnUse">
<stop stop-color="#FAE417"/>
<stop offset="1" stop-color="#C9DB41"/>
</linearGradient>
<linearGradient id="paint15_linear_801_510" x1="28.8211" y1="31.1785" x2="11.6148" y2="48.3848" gradientUnits="userSpaceOnUse">
<stop stop-color="#CC8BBD"/>
<stop offset="1" stop-color="#9A90C4"/>
</linearGradient>
<clipPath id="clip0_801_510">
<rect width="60" height="60" rx="13.28" fill="white"/>
</clipPath>
</defs>
</svg>
