<svg xmlns="http://www.w3.org/2000/svg" xml:space="preserve" id="Layer_1" width="200" height="200" fill="#000" viewBox="0 0 512 512"><g id="SVGRepo_iconCarrier"><path d="M509.671 357.063a9.08 9.08 0 0 0-10.106-2.361c-30.773 12.254-63.458 18.466-97.147 18.466-27.953 0-55.472-4.352-81.798-12.938l-26.99-10.488c-45.469-20.629-84.048-53.639-111.572-95.468-28.28-42.982-43.229-93.016-43.229-144.692 0-33.69 6.213-66.373 18.466-97.144a9.08 9.08 0 0 0-12.66-11.392C55.421 47.988 0 139.897 0 240.905c0 149.48 121.612 271.092 271.092 271.092 101.01 0 192.92-55.421 239.863-144.636a9.08 9.08 0 0 0-1.284-10.298" style="fill:#3a5d74"/><path d="M284.14 498.382c-149.48 0-271.092-121.612-271.092-271.092 0-67.947 25.079-131.776 68.654-180.571C30.126 96.924 0 166.44 0 240.905c0 149.48 121.612 271.092 271.092 271.092 78.445 0 151.394-33.43 202.064-90.15-49.753 48.414-117.074 76.535-189.016 76.535" style="opacity:.1;fill:#231f20"/></g></svg>