<svg width="60" height="60" viewBox="0 0 60 60" fill="none" xmlns="http://www.w3.org/2000/svg">
<g clip-path="url(#clip0_1867_2868)">
<g clip-path="url(#clip1_1867_2868)">
<rect width="60" height="60" fill="url(#paint0_linear_1867_2868)"/>
<path d="M16.2609 15.6667V7.44653H18.249L20.5846 13.3539H20.6188L22.9544 7.44653H24.9425V15.6667H23.4102V10.1069H23.3589L21.1429 15.6667H20.0605L17.8389 10.1069H17.7933V15.6667H16.2609ZM30.6016 15.8092C28.1577 15.8092 26.6367 14.1742 26.6367 11.5595V11.5481C26.6367 8.93335 28.1691 7.30412 30.6016 7.30412C33.0397 7.30412 34.5664 8.93905 34.5664 11.5481V11.5595C34.5664 14.1742 33.0454 15.8092 30.6016 15.8092ZM30.6016 14.3508C31.9687 14.3508 32.8118 13.2628 32.8118 11.5595V11.5481C32.8118 9.83342 31.9517 8.76245 30.6016 8.76245C29.2572 8.76245 28.3913 9.82772 28.3913 11.5481V11.5595C28.3913 13.2799 29.2515 14.3508 30.6016 14.3508ZM36.2606 15.6667V7.44653H37.7645L41.4787 12.79H41.5129V7.44653H43.2275V15.6667H41.735L38.0094 10.2834H37.9753V15.6667H36.2606Z" fill="#FE3C3B"/>
<path d="M20.9971 49.9375C15.5648 49.9375 12.0465 46.9115 11.7002 42.7552L11.682 42.5365H14.8356L14.8538 42.7188C15.1273 45.3073 17.4971 47.0938 20.9971 47.0938C24.4424 47.0938 26.7939 45.1615 26.7939 42.3724V42.3359C26.7939 39.1094 24.4788 37.3047 20.7965 37.3047H17.4971V34.5339H20.6507C23.7861 34.5339 25.9736 32.6016 25.9736 29.9766V29.9401C25.9736 27.1875 24.1689 25.6016 20.9606 25.6016C17.8617 25.6016 15.6559 27.2422 15.3825 29.9036L15.3643 30.0859H12.2106L12.2288 29.9036C12.6481 25.6198 16.0387 22.7578 20.9606 22.7578C25.9736 22.7578 29.2731 25.5469 29.2731 29.5391V29.5755C29.2731 32.8203 26.9762 35.0443 23.695 35.737V35.8099C27.5231 36.138 30.1299 38.526 30.1299 42.263V42.2995C30.1299 46.6927 26.2653 49.9375 20.9971 49.9375ZM40.8564 49.5V26.6771H40.7835L33.82 31.526V28.2266L40.82 23.1953H44.0283V49.5H40.8564Z" fill="white"/>
</g>
</g>
<defs>
<linearGradient id="paint0_linear_1867_2868" x1="30" y1="0" x2="30" y2="60" gradientUnits="userSpaceOnUse">
<stop stop-color="#313131"/>
<stop offset="1" stop-color="#141514"/>
</linearGradient>
<clipPath id="clip0_1867_2868">
<rect width="60" height="60" rx="13.28" fill="white"/>
</clipPath>
<clipPath id="clip1_1867_2868">
<rect width="60" height="60" fill="white"/>
</clipPath>
</defs>
</svg>
