<svg width="60" height="60" viewBox="0 0 60 60" fill="none" xmlns="http://www.w3.org/2000/svg">
<g clip-path="url(#clip0_2260_6938)">
<rect width="60" height="60" fill="url(#paint0_linear_2260_6938)"/>
<circle cx="30" cy="30" r="26.25" fill="#555555"/>
<path d="M28.1571 11.5385V7.68614H28.1413L26.9518 8.50645V7.83758L28.1508 6.98572H28.848V11.5385H28.1571ZM29.9586 11.5385V11.0526L31.5614 9.44035C32.1671 8.83458 32.3028 8.59479 32.3028 8.24143V8.23512C32.2997 7.80288 31.9715 7.49368 31.5109 7.49368C30.9777 7.49368 30.5959 7.85336 30.5896 8.31399V8.33292H29.9207V8.31399C29.9207 7.49999 30.6117 6.91 31.5014 6.91C32.3754 6.91 33.0001 7.45897 33.0001 8.1941V8.20041C33.0001 8.72099 32.7571 9.09013 31.94 9.89783L30.9051 10.9138V10.9421H33.0726V11.5385H29.9586Z" fill="white"/>
<path d="M30.0313 52.9219C29.1006 52.9219 28.2424 52.2751 28.2424 50.6377V50.6313C28.2424 49.1138 28.9207 48.2177 30.0597 48.2177C30.8706 48.2177 31.4795 48.6815 31.6246 49.3599L31.6341 49.3977H30.9242L30.9147 49.3662C30.7854 49.0254 30.4888 48.8109 30.0534 48.8109C29.271 48.8109 28.9523 49.5649 28.9239 50.4673C28.9207 50.5083 28.9207 50.5493 28.9207 50.5903H28.9365C29.1164 50.1802 29.577 49.8584 30.1954 49.8584C31.0662 49.8584 31.694 50.4925 31.694 51.3539V51.3602C31.694 52.2688 30.9905 52.9219 30.0313 52.9219ZM29.0596 51.3633C29.0596 51.9028 29.4823 52.3288 30.0219 52.3288C30.5614 52.3288 30.9905 51.9091 30.9905 51.3791V51.3728C30.9905 50.8238 30.5866 50.4326 30.0313 50.4326C29.4792 50.4326 29.0596 50.8207 29.0596 51.3602V51.3633Z" fill="white"/>
<path d="M40.4708 14.3055V10.4532H40.455L39.2655 11.2735V10.6047L40.4645 9.75281H41.1617V14.3055H40.4708Z" fill="white"/>
<path d="M18.4651 50.1367L20.4875 46.1961V46.1803H18.0865V45.584H21.1847V46.1961L19.2065 50.1367H18.4651Z" fill="white"/>
<path d="M46.485 21.8654V21.3795L48.0877 19.7672C48.6935 19.1615 48.8292 18.9217 48.8292 18.5683V18.562C48.826 18.1298 48.4979 17.8206 48.0373 17.8206C47.5041 17.8206 47.1223 18.1803 47.116 18.6409V18.6598H46.4471V18.6409C46.4471 17.8269 47.1381 17.2369 48.0278 17.2369C48.9017 17.2369 49.5264 17.7859 49.5264 18.521V18.5273C49.5264 19.0479 49.2835 19.417 48.4663 20.2247L47.4315 21.2407V21.2691H49.599V21.8654H46.485Z" fill="white"/>
<path d="M12.0554 42.6949C11.049 42.6949 10.3359 42.1553 10.3359 41.3855V41.3792C10.3359 40.805 10.7492 40.3507 11.3424 40.2213V40.2055C10.8344 40.0604 10.5032 39.6818 10.5032 39.1991V39.1928C10.5032 38.4986 11.1499 37.9907 12.0554 37.9907C12.9609 37.9907 13.6109 38.4986 13.6109 39.1928V39.1991C13.6109 39.6818 13.2796 40.0604 12.7716 40.2055V40.2213C13.3648 40.3507 13.7749 40.805 13.7749 41.3792V41.3855C13.7749 42.1553 13.0651 42.6949 12.0554 42.6949ZM12.0554 39.9689C12.5634 39.9689 12.9105 39.6755 12.9105 39.2622V39.2559C12.9105 38.8394 12.5602 38.5491 12.0554 38.5491C11.5506 38.5491 11.2036 38.8394 11.2036 39.2559V39.2622C11.2036 39.6755 11.5506 39.9689 12.0554 39.9689ZM12.0554 42.1301C12.636 42.1301 13.0493 41.7988 13.0493 41.3382V41.3319C13.0493 40.8681 12.6391 40.5337 12.0554 40.5337C11.4718 40.5337 11.0616 40.8681 11.0616 41.3319V41.3382C11.0616 41.7988 11.4749 42.1301 12.0554 42.1301Z" fill="white"/>
<path d="M50.7565 32.268C49.7848 32.268 49.1506 31.7379 49.0875 30.9965L49.0844 30.9555H49.7627L49.7659 30.9902C49.81 31.394 50.1918 31.678 50.7565 31.678C51.3118 31.678 51.6873 31.3688 51.6873 30.9271V30.9208C51.6873 30.4065 51.315 30.1194 50.7061 30.1194H50.1539V29.5704H50.6871C51.2077 29.5704 51.5611 29.2644 51.5611 28.8416V28.8353C51.5611 28.3967 51.2645 28.1412 50.7502 28.1412C50.2454 28.1412 49.8921 28.4062 49.8479 28.829L49.8447 28.8574H49.1822L49.1853 28.8258C49.2547 28.0655 49.8605 27.5638 50.7502 27.5638C51.6557 27.5638 52.2489 28.0434 52.2489 28.7438V28.7501C52.2489 29.3149 51.845 29.6935 51.2897 29.8102V29.826C51.9586 29.8859 52.4066 30.2898 52.4066 30.9271V30.9334C52.4066 31.7127 51.722 32.268 50.7565 32.268Z" fill="white"/>
<path d="M9.19967 27.6793C10.1304 27.6793 10.9886 28.3261 10.9886 29.9635V29.9698C10.9886 31.4874 10.3102 32.3835 9.17127 32.3835C8.36043 32.3835 7.7515 31.9197 7.60637 31.2413L7.59691 31.2035H8.30364L8.31626 31.235C8.44561 31.5758 8.74219 31.7903 9.17758 31.7903C9.96004 31.7903 10.2787 31.0363 10.3071 30.1339C10.3102 30.0929 10.3102 30.0519 10.3102 30.0109H10.2945C10.1146 30.421 9.654 30.7428 9.03561 30.7428C8.16481 30.7428 7.5338 30.1087 7.5338 29.2473V29.241C7.5338 28.3324 8.23738 27.6793 9.19967 27.6793ZM9.19651 30.1686C9.7518 30.1686 10.1714 29.7805 10.1714 29.241V29.2379C10.1714 28.6984 9.74865 28.2724 9.20598 28.2724C8.66962 28.2724 8.23738 28.6921 8.23738 29.2221V29.2284C8.23738 29.7774 8.64438 30.1686 9.19651 30.1686Z" fill="white"/>
<path d="M48.2279 42.6191V41.7136H45.95V41.0984L47.884 38.0664H48.9063V41.1205H49.5341V41.7136H48.9063V42.6191H48.2279ZM46.6062 41.13H48.2342V38.6248H48.2153L46.6062 41.111V41.13Z" fill="white"/>
<path d="M10.2406 21.8654V18.013H10.2248L9.03538 18.8334V18.1645L10.2343 17.3126H10.9316V21.8654H10.2406ZM13.7049 21.9411C12.6164 21.9411 11.9664 21.0356 11.9664 19.5906V19.5843C11.9664 18.1392 12.6164 17.2369 13.7049 17.2369C14.7902 17.2369 15.4433 18.1392 15.4433 19.5843V19.5906C15.4433 21.0356 14.7902 21.9411 13.7049 21.9411ZM13.7049 21.3511C14.3516 21.3511 14.7302 20.6822 14.7302 19.5906V19.5843C14.7302 18.4926 14.3516 17.83 13.7049 17.83C13.0549 17.83 12.6795 18.4926 12.6795 19.5843V19.5906C12.6795 20.6822 13.0549 21.3511 13.7049 21.3511Z" fill="white"/>
<path d="M40.4862 50.1548C39.5744 50.1548 38.9402 49.6027 38.8771 48.8518L38.8739 48.8139L39.5491 48.8139L39.5523 48.8392C39.6122 49.2493 39.9845 49.5648 40.4925 49.5648C41.0667 49.5648 41.4674 49.1673 41.4674 48.6025L41.4674 48.5962C41.4642 48.0378 41.0636 47.6434 40.4988 47.6434C40.218 47.6434 39.9751 47.7254 39.7921 47.8895C39.7069 47.9621 39.6343 48.0504 39.5744 48.1514L38.956 48.1514L39.18 45.5264L41.8933 45.5264L41.8933 46.1227L39.7511 46.1227L39.6122 47.5645L39.628 47.5645C39.8331 47.2585 40.2117 47.085 40.6597 47.085C41.5305 47.085 42.1584 47.7128 42.1584 48.5836L42.1584 48.5899C42.1584 49.5143 41.4674 50.1548 40.4862 50.1548Z" fill="white"/>
<path d="M18.0098 14.3633V10.511H17.9941L16.8046 11.3313V10.6624L18.0035 9.81055H18.7008V14.3633H18.0098ZM20.963 14.3633V10.511H20.9472L19.7577 11.3313V10.6624L20.9567 9.81055H21.6539V14.3633H20.963Z" fill="white"/>
<circle cx="29.9998" cy="30" r="0.923077" stroke="white" stroke-width="0.923077"/>
<rect x="46.5654" y="13.9099" width="1.84615" height="19.3846" rx="0.923077" transform="rotate(48 46.5654 13.9099)" fill="white"/>
<rect x="44.4736" y="16.4148" width="0.923077" height="18.9231" rx="0.461538" transform="rotate(48 44.4736 16.4148)" fill="white"/>
<rect width="1.84615" height="11.2431" rx="0.923077" transform="matrix(-0.5 0.866025 0.866025 0.5 18.8828 22.5159)" fill="white"/>
<rect width="0.923077" height="10.6154" rx="0.461538" transform="matrix(-0.5 0.866025 0.866025 0.5 20.2754 23.8525)" fill="white"/>
<path fill-rule="evenodd" clip-rule="evenodd" d="M32.0298 26.4849C32.2506 26.6123 32.3262 26.8946 32.1987 27.1154L30.7999 29.5383C30.8785 29.6741 30.9234 29.8318 30.9234 30C30.9234 30.5098 30.5102 30.9231 30.0004 30.9231L18.6309 50.6156C18.5034 50.8364 18.2211 50.912 18.0004 50.7846C17.7796 50.6571 17.704 50.3748 17.8314 50.1541L29.2009 30.4617C29.1223 30.3259 29.0773 30.1682 29.0773 30C29.0773 29.4902 29.4906 29.0769 30.0004 29.0769L31.3993 26.6538C31.5268 26.4331 31.8091 26.3574 32.0298 26.4849ZM30.0003 30.4615C30.2552 30.4615 30.4618 30.2549 30.4618 30C30.4618 29.7451 30.2552 29.5384 30.0003 29.5384C29.7454 29.5384 29.5388 29.7451 29.5388 30C29.5388 30.2549 29.7454 30.4615 30.0003 30.4615Z" fill="#FF9500"/>
</g>
<defs>
<linearGradient id="paint0_linear_2260_6938" x1="30" y1="0" x2="30" y2="60" gradientUnits="userSpaceOnUse">
<stop stop-color="#313131"/>
<stop offset="1" stop-color="#141514"/>
</linearGradient>
<clipPath id="clip0_2260_6938">
<rect width="60" height="60" rx="13.28" fill="white"/>
</clipPath>
</defs>
</svg>
