<svg width="60" height="60" viewBox="0 0 60 60" fill="none" xmlns="http://www.w3.org/2000/svg">
<rect width="60" height="60" rx="13.3594" fill="url(#paint0_linear_1867_2488)"/>
<path fill-rule="evenodd" clip-rule="evenodd" d="M9.54488 20.3086C8.90625 21.562 8.90625 23.2028 8.90625 26.4844V33.5156C8.90625 36.7972 8.90625 38.438 9.54488 39.6914C10.1066 40.7939 11.003 41.6902 12.1055 42.252C13.3589 42.8906 14.9997 42.8906 18.2812 42.8906H28.8281C32.1097 42.8906 33.7505 42.8906 35.0039 42.252C36.1064 41.6902 37.0027 40.7939 37.5645 39.6914C38.2031 38.438 38.2031 36.7972 38.2031 33.5156V26.4844C38.2031 23.2028 38.2031 21.562 37.5645 20.3086C37.0027 19.2061 36.1064 18.3098 35.0039 17.748C33.7505 17.1094 32.1097 17.1094 28.8281 17.1094H18.2813C14.9997 17.1094 13.3589 17.1094 12.1055 17.748C11.003 18.3098 10.1066 19.2061 9.54488 20.3086ZM40.3448 24.7496C39.8813 25.1044 39.6094 25.6549 39.6094 26.2386V33.7614C39.6094 34.3451 39.8813 34.8956 40.3448 35.2504L48.0792 41.1695C49.3129 42.1137 51.0938 41.234 51.0938 39.6805V20.3195C51.0938 18.766 49.3129 17.8863 48.0792 18.8305L40.3448 24.7496Z" fill="url(#paint1_linear_1867_2488)"/>
<defs>
<linearGradient id="paint0_linear_1867_2488" x1="30" y1="0" x2="30" y2="60" gradientUnits="userSpaceOnUse">
<stop stop-color="#313131"/>
<stop offset="1" stop-color="#141514"/>
</linearGradient>
<linearGradient id="paint1_linear_1867_2488" x1="30" y1="17.1094" x2="30" y2="42.8906" gradientUnits="userSpaceOnUse">
<stop stop-color="#5CF777"/>
<stop offset="1" stop-color="#0EBC29"/>
</linearGradient>
</defs>
</svg>
