<svg width="60" height="60" viewBox="0 0 60 60" fill="none" xmlns="http://www.w3.org/2000/svg">
<g clip-path="url(#clip0_1867_2742)">
<rect width="60" height="60" rx="13.28" fill="url(#paint0_linear_1867_2742)"/>
<path fill-rule="evenodd" clip-rule="evenodd" d="M25.0505 33.6598L22.3752 30.9846L10.1217 43.2381C10.1815 43.274 10.2426 43.3079 10.305 43.3397C10.9468 43.6667 11.7868 43.6667 13.467 43.6667H46.5337C48.2138 43.6667 49.0539 43.6667 49.6956 43.3397C49.758 43.3079 49.8191 43.2741 49.8788 43.2382L37.6252 30.9846L34.95 33.6598C34.1056 34.5043 33.099 35.0879 32.0306 35.4106C31.3696 35.6103 30.6849 35.7101 30.0002 35.7101C28.2088 35.7101 26.4173 35.0267 25.0505 33.6598ZM50.905 42.212C50.9409 42.1523 50.9749 42.0911 51.0067 42.0287C51.3337 41.3869 51.3337 40.5469 51.3337 38.8667V21.1334C51.3337 19.4532 51.3337 18.6131 51.0067 17.9714C50.9656 17.8909 50.9211 17.8125 50.8733 17.7365L38.6514 29.9584L50.905 42.212ZM49.9305 16.7937C49.8545 16.7459 49.7761 16.7014 49.6956 16.6604C49.0539 16.3334 48.2138 16.3334 46.5337 16.3334H13.467C11.7868 16.3334 10.9468 16.3334 10.305 16.6604C10.2245 16.7014 10.1461 16.7459 10.07 16.7937L25.9933 32.717C26.8088 33.5325 27.8109 34.0475 28.8621 34.2619C29.5939 34.4112 30.3495 34.4149 31.0825 34.273C32.1541 34.0656 33.1773 33.5469 34.0071 32.717L49.9305 16.7937ZM9.12723 17.7366L21.3491 29.9584L9.09556 42.2119C9.05967 42.1522 9.02577 42.0911 8.99397 42.0287C8.66699 41.3869 8.66699 40.5469 8.66699 38.8667V21.1334C8.66699 19.4532 8.66699 18.6131 8.99397 17.9714C9.03497 17.8909 9.07946 17.8126 9.12723 17.7366Z" fill="url(#paint1_linear_1867_2742)"/>
</g>
<defs>
<linearGradient id="paint0_linear_1867_2742" x1="30" y1="0" x2="30" y2="60" gradientUnits="userSpaceOnUse">
<stop stop-color="#313131"/>
<stop offset="1" stop-color="#141514"/>
</linearGradient>
<linearGradient id="paint1_linear_1867_2742" x1="30.0003" y1="16.3334" x2="30.0003" y2="43.6667" gradientUnits="userSpaceOnUse">
<stop stop-color="#1A6AE7"/>
<stop offset="1" stop-color="#20C2F4"/>
</linearGradient>
<clipPath id="clip0_1867_2742">
<rect width="60" height="60" rx="13.28" fill="white"/>
</clipPath>
</defs>
</svg>
