<svg width="60" height="60" viewBox="0 0 60 60" fill="none" xmlns="http://www.w3.org/2000/svg">
<g clip-path="url(#clip0_1867_2822)">
<rect width="60" height="60" rx="13.28" fill="url(#paint0_linear_1867_2822)"/>
<g clip-path="url(#clip1_1867_2822)">
<circle cx="60.8545" cy="-0.873631" r="18.8109" stroke="#595959" stroke-width="10.0169"/>
<path fill-rule="evenodd" clip-rule="evenodd" d="M60.8548 14.1314C69.1418 14.1314 75.8598 7.41343 75.8598 -0.873598C75.8598 -9.16063 69.1418 -15.8786 60.8548 -15.8786C52.5678 -15.8786 45.8498 -9.16063 45.8498 -0.873598C45.8498 7.41343 52.5678 14.1314 60.8548 14.1314ZM60.8548 21.781C73.3666 21.781 83.5094 11.6382 83.5094 -0.873598C83.5094 -13.3854 73.3666 -23.5282 60.8548 -23.5282C48.343 -23.5282 38.2002 -13.3854 38.2002 -0.873598C38.2002 11.6382 48.343 21.781 60.8548 21.781Z" fill="#3D3D3D"/>
</g>
<path fill-rule="evenodd" clip-rule="evenodd" d="M13.4532 -0.820312H31.8517V26.7662L64.3495 48.5583L56.2326 60.9863L31.565 44.6274V60.0973H13.7441V32.8091L-7.85156 18.4875L0.265394 6.41107L12.027 13.7735C12.6476 14.162 13.4532 13.7159 13.4532 12.9837V-0.820312Z" fill="url(#paint1_linear_1867_2822)"/>
<path d="M16.3066 -1.74707H22.5963H28.8861V29.8179H16.3066V-1.74707Z" fill="url(#paint2_linear_1867_2822)"/>
<g filter="url(#filter0_d_1867_2822)">
<circle cx="22.4795" cy="37.3844" r="13.8607" fill="url(#paint3_linear_1867_2822)" stroke="white" stroke-width="2.32952"/>
<path d="M24.1333 28.904C23.6504 27.6347 21.7696 27.6347 21.2867 28.904L15.9479 43.487C15.6079 44.4155 16.7579 45.1645 17.4697 44.4781L22.3866 39.7368C22.5671 39.5627 22.8529 39.5627 23.0334 39.7368L27.9503 44.478C28.6621 45.1644 29.812 44.4155 29.4721 43.4869L24.1333 28.904Z" fill="white"/>
</g>
</g>
<defs>
<filter id="filter0_d_1867_2822" x="0.465536" y="17.1176" width="44.0279" height="44.0279" filterUnits="userSpaceOnUse" color-interpolation-filters="sRGB">
<feFlood flood-opacity="0" result="BackgroundImageFix"/>
<feColorMatrix in="SourceAlpha" type="matrix" values="0 0 0 0 0 0 0 0 0 0 0 0 0 0 0 0 0 0 127 0" result="hardAlpha"/>
<feOffset dy="1.74714"/>
<feGaussianBlur stdDeviation="3.49428"/>
<feComposite in2="hardAlpha" operator="out"/>
<feColorMatrix type="matrix" values="0 0 0 0 0 0 0 0 0 0 0 0 0 0 0 0 0 0 0.25 0"/>
<feBlend mode="normal" in2="BackgroundImageFix" result="effect1_dropShadow_1867_2822"/>
<feBlend mode="normal" in="SourceGraphic" in2="effect1_dropShadow_1867_2822" result="shape"/>
</filter>
<linearGradient id="paint0_linear_1867_2822" x1="30" y1="0" x2="30" y2="60" gradientUnits="userSpaceOnUse">
<stop stop-color="#313131"/>
<stop offset="1" stop-color="#141514"/>
</linearGradient>
<linearGradient id="paint1_linear_1867_2822" x1="28.249" y1="-0.820313" x2="28.249" y2="60.9863" gradientUnits="userSpaceOnUse">
<stop stop-color="#585A59"/>
<stop offset="1" stop-color="#404040"/>
</linearGradient>
<linearGradient id="paint2_linear_1867_2822" x1="22.5963" y1="-1.74707" x2="22.5963" y2="29.8179" gradientUnits="userSpaceOnUse">
<stop stop-color="#0C91FF"/>
<stop offset="1" stop-color="#0077F7"/>
</linearGradient>
<linearGradient id="paint3_linear_1867_2822" x1="22.4795" y1="22.359" x2="22.4795" y2="52.4098" gradientUnits="userSpaceOnUse">
<stop stop-color="#0C91FF"/>
<stop offset="1" stop-color="#017AFF"/>
</linearGradient>
<clipPath id="clip0_1867_2822">
<rect width="60" height="60" rx="13.28" fill="white"/>
</clipPath>
<clipPath id="clip1_1867_2822">
<rect x="37.0352" width="23.0623" height="23.8776" fill="white"/>
</clipPath>
</defs>
</svg>
