<svg width="60" height="60" viewBox="0 0 60 60" fill="none" xmlns="http://www.w3.org/2000/svg">
<g clip-path="url(#clip0_1867_2814)">
<rect width="60" height="60" fill="url(#paint0_linear_1867_2814)"/>
<path opacity="0.6" fill-rule="evenodd" clip-rule="evenodd" d="M30 4C25.9634 4 22.6251 6.98964 22.0784 10.8755C18.9442 8.51424 14.4696 8.76078 11.6152 11.6151C8.7609 14.4694 8.51435 18.944 10.8756 22.0783C6.98968 22.6249 4 25.9632 4 29.9999C4 34.0365 6.98973 37.3749 10.8757 37.9215C8.51438 41.0557 8.76091 45.5304 11.6153 48.3847C14.4696 51.239 18.9442 51.4856 22.0784 49.1244C22.625 53.0103 25.9634 56 30 56C34.0366 56 37.375 53.0103 37.9216 49.1244C41.0558 51.4856 45.5304 51.2391 48.3847 48.3847C51.2391 45.5304 51.4856 41.0557 49.1243 37.9215C53.0102 37.3749 56 34.0365 56 29.9999C56 25.9633 53.0103 22.6249 49.1244 22.0783C51.4856 18.944 51.2391 14.4694 48.3848 11.6151C45.5304 8.76077 41.0558 8.51423 37.9216 10.8755C37.3749 6.98962 34.0366 4 30 4ZM29.2971 31.6971C29.5287 31.6769 29.7631 31.6666 30 31.6666C30.2369 31.6666 30.4713 31.6769 30.7029 31.6971C30.8525 31.519 31.011 31.346 31.1785 31.1785C31.346 31.011 31.519 30.8525 31.6971 30.7029C31.6769 30.4713 31.6666 30.2368 31.6666 29.9999C31.6666 29.763 31.6769 29.5285 31.6971 29.2969C31.519 29.1474 31.346 28.9889 31.1785 28.8214C31.011 28.6539 30.8526 28.4809 30.7031 28.3029C30.4714 28.323 30.2369 28.3333 30 28.3333C29.7631 28.3333 29.5286 28.323 29.2969 28.3029C29.1474 28.4809 28.989 28.6539 28.8215 28.8214C28.654 28.9889 28.4809 29.1474 28.3029 29.2969C28.323 29.5286 28.3333 29.763 28.3333 29.9999C28.3333 30.2368 28.323 30.4712 28.3029 30.7029C28.4809 30.8524 28.654 31.011 28.8215 31.1785C28.989 31.346 29.1475 31.519 29.2971 31.6971Z" fill="white"/>
<path opacity="0.5" fill-rule="evenodd" clip-rule="evenodd" d="M30 4C25.9634 4 22.6251 6.98964 22.0784 10.8755C18.9442 8.51424 14.4696 8.76078 11.6152 11.6151C8.7609 14.4694 8.51435 18.944 10.8756 22.0783C6.98968 22.6249 4 25.9632 4 29.9999C4 34.0365 6.98973 37.3749 10.8757 37.9215C8.51438 41.0557 8.76091 45.5304 11.6153 48.3847C14.4696 51.239 18.9442 51.4856 22.0784 49.1244C22.625 53.0103 25.9634 56 30 56C34.0366 56 37.375 53.0103 37.9216 49.1244C41.0558 51.4856 45.5304 51.2391 48.3847 48.3847C51.2391 45.5304 51.4856 41.0557 49.1243 37.9215C53.0102 37.3749 56 34.0365 56 29.9999C56 25.9633 53.0103 22.6249 49.1244 22.0783C51.4856 18.944 51.2391 14.4694 48.3848 11.6151C45.5304 8.76077 41.0558 8.51423 37.9216 10.8755C37.3749 6.98962 34.0366 4 30 4ZM29.2971 31.6971C29.5287 31.6769 29.7631 31.6666 30 31.6666C30.2369 31.6666 30.4713 31.6769 30.7029 31.6971C30.8525 31.519 31.011 31.346 31.1785 31.1785C31.346 31.011 31.519 30.8525 31.6971 30.7029C31.6769 30.4713 31.6666 30.2368 31.6666 29.9999C31.6666 29.763 31.6769 29.5285 31.6971 29.2969C31.519 29.1474 31.346 28.9889 31.1785 28.8214C31.011 28.6539 30.8526 28.4809 30.7031 28.3029C30.4714 28.323 30.2369 28.3333 30 28.3333C29.7631 28.3333 29.5286 28.323 29.2969 28.3029C29.1474 28.4809 28.989 28.6539 28.8215 28.8214C28.654 28.9889 28.4809 29.1474 28.3029 29.2969C28.323 29.5286 28.3333 29.763 28.3333 29.9999C28.3333 30.2368 28.323 30.4712 28.3029 30.7029C28.4809 30.8524 28.654 31.011 28.8215 31.1785C28.989 31.346 29.1475 31.519 29.2971 31.6971Z" fill="white"/>
<rect x="22" y="4.00012" width="16" height="24.3333" rx="8" fill="url(#paint1_linear_1867_2814)"/>
<rect x="22" y="31.6667" width="16" height="24.3333" rx="8" fill="url(#paint2_linear_1867_2814)"/>
<rect x="4" y="38" width="16" height="24.3333" rx="8" transform="rotate(-90 4 38)" fill="url(#paint3_linear_1867_2814)"/>
<rect x="31.667" y="38" width="16" height="24.3333" rx="8" transform="rotate(-90 31.667 38)" fill="url(#paint4_linear_1867_2814)"/>
<rect x="5.95801" y="17.2721" width="16" height="24.3333" rx="8" transform="rotate(-45 5.95801 17.2721)" fill="url(#paint5_linear_1867_2814)"/>
<rect x="25.5215" y="36.8354" width="16" height="24.3333" rx="8" transform="rotate(-45 25.5215 36.8354)" fill="url(#paint6_linear_1867_2814)"/>
<rect x="42.7275" y="5.95837" width="16" height="24.3333" rx="8" transform="rotate(45 42.7275 5.95837)" fill="url(#paint7_linear_1867_2814)"/>
<rect x="23.165" y="25.5217" width="16" height="24.3333" rx="8" transform="rotate(45 23.165 25.5217)" fill="url(#paint8_linear_1867_2814)"/>
<g opacity="0.7" style="mix-blend-mode:multiply">
<path d="M28.108 28.1084C25.2092 27.4056 22.9274 25.1238 22.2246 22.225C25.1235 22.9278 27.4053 25.2096 28.108 28.1084Z" fill="url(#paint9_linear_1867_2814)"/>
</g>
<g opacity="0.7" style="mix-blend-mode:multiply">
<path d="M28.108 31.8917C27.4053 34.7906 25.1235 37.0724 22.2246 37.7752C22.9274 34.8763 25.2092 32.5945 28.108 31.8917Z" fill="url(#paint10_linear_1867_2814)"/>
</g>
<g opacity="0.7" style="mix-blend-mode:multiply">
<path d="M37.775 22.225C37.0722 25.1238 34.7904 27.4056 31.8916 28.1084C32.5944 25.2096 34.8762 22.9278 37.775 22.225Z" fill="url(#paint11_linear_1867_2814)"/>
</g>
<g opacity="0.7" style="mix-blend-mode:multiply">
<path d="M37.775 37.7752C34.8762 37.0724 32.5944 34.7906 31.8916 31.8917C34.7904 32.5945 37.0722 34.8763 37.775 37.7752Z" fill="url(#paint12_linear_1867_2814)"/>
</g>
<g opacity="0.7" style="mix-blend-mode:multiply">
<path d="M27.3243 30.0001C24.7776 31.5529 21.5507 31.5529 19.0039 30.0001C21.5506 28.4472 24.7776 28.4472 27.3243 30.0001Z" fill="url(#paint13_linear_1867_2814)"/>
</g>
<g opacity="0.7" style="mix-blend-mode:multiply">
<path d="M29.9996 27.325C28.4467 24.7782 28.4467 21.5513 29.9996 19.0045C31.5525 21.5513 31.5525 24.7782 29.9996 27.325Z" fill="url(#paint14_linear_1867_2814)"/>
</g>
<g opacity="0.7" style="mix-blend-mode:multiply">
<path d="M40.9952 30.0001C38.4485 31.5529 35.2215 31.5529 32.6748 30.0001C35.2215 28.4472 38.4485 28.4472 40.9952 30.0001Z" fill="url(#paint15_linear_1867_2814)"/>
</g>
<g opacity="0.7" style="mix-blend-mode:multiply">
<path d="M29.9996 32.6752C31.5525 35.2219 31.5525 38.4489 29.9996 40.9956C28.4467 38.4489 28.4467 35.2219 29.9996 32.6752Z" fill="url(#paint16_linear_1867_2814)"/>
</g>
</g>
<defs>
<linearGradient id="paint0_linear_1867_2814" x1="30" y1="0" x2="30" y2="60" gradientUnits="userSpaceOnUse">
<stop stop-color="#313131"/>
<stop offset="1" stop-color="#141514"/>
</linearGradient>
<linearGradient id="paint1_linear_1867_2814" x1="30" y1="4.00012" x2="30" y2="28.3335" gradientUnits="userSpaceOnUse">
<stop stop-color="#F69B35"/>
<stop offset="1" stop-color="#FFE51C"/>
</linearGradient>
<linearGradient id="paint2_linear_1867_2814" x1="30" y1="31.6667" x2="30" y2="56.0001" gradientUnits="userSpaceOnUse">
<stop stop-color="#897FBB"/>
<stop offset="1" stop-color="#5DAFE5"/>
</linearGradient>
<linearGradient id="paint3_linear_1867_2814" x1="12" y1="38" x2="12" y2="62.3333" gradientUnits="userSpaceOnUse">
<stop offset="0.0001" stop-color="#CC8BBD"/>
<stop offset="1" stop-color="#EE585F"/>
</linearGradient>
<linearGradient id="paint4_linear_1867_2814" x1="39.667" y1="38" x2="39.667" y2="62.3333" gradientUnits="userSpaceOnUse">
<stop stop-color="#67C17F"/>
<stop offset="1" stop-color="#C7D942"/>
</linearGradient>
<linearGradient id="paint5_linear_1867_2814" x1="13.958" y1="17.2721" x2="13.958" y2="41.6054" gradientUnits="userSpaceOnUse">
<stop stop-color="#F25D69"/>
<stop offset="1" stop-color="#F6933F"/>
</linearGradient>
<linearGradient id="paint6_linear_1867_2814" x1="33.5215" y1="36.8354" x2="33.5215" y2="61.1688" gradientUnits="userSpaceOnUse">
<stop stop-color="#65B8E5"/>
<stop offset="1" stop-color="#68C181"/>
</linearGradient>
<linearGradient id="paint7_linear_1867_2814" x1="50.7275" y1="5.95837" x2="50.7275" y2="30.2917" gradientUnits="userSpaceOnUse">
<stop stop-color="#FAE417"/>
<stop offset="1" stop-color="#C9DB41"/>
</linearGradient>
<linearGradient id="paint8_linear_1867_2814" x1="31.165" y1="25.5217" x2="31.165" y2="49.8551" gradientUnits="userSpaceOnUse">
<stop stop-color="#CC8BBD"/>
<stop offset="1" stop-color="#9A90C4"/>
</linearGradient>
<linearGradient id="paint9_linear_1867_2814" x1="3.99967" y1="30" x2="28.333" y2="30" gradientUnits="userSpaceOnUse">
<stop offset="0.0001" stop-color="#CC8BBD"/>
<stop offset="1" stop-color="#EE585F"/>
</linearGradient>
<linearGradient id="paint10_linear_1867_2814" x1="3.99967" y1="30.0001" x2="28.333" y2="30.0001" gradientUnits="userSpaceOnUse">
<stop offset="0.0001" stop-color="#CC8BBD"/>
<stop offset="1" stop-color="#EE585F"/>
</linearGradient>
<linearGradient id="paint11_linear_1867_2814" x1="31.6667" y1="30" x2="56" y2="30" gradientUnits="userSpaceOnUse">
<stop stop-color="#67C17F"/>
<stop offset="1" stop-color="#C7D942"/>
</linearGradient>
<linearGradient id="paint12_linear_1867_2814" x1="31.6667" y1="30.0001" x2="56" y2="30.0001" gradientUnits="userSpaceOnUse">
<stop stop-color="#67C17F"/>
<stop offset="1" stop-color="#C7D942"/>
</linearGradient>
<linearGradient id="paint13_linear_1867_2814" x1="28.821" y1="31.1786" x2="11.6147" y2="48.3849" gradientUnits="userSpaceOnUse">
<stop stop-color="#CC8BBD"/>
<stop offset="1" stop-color="#9A90C4"/>
</linearGradient>
<linearGradient id="paint14_linear_1867_2814" x1="11.6149" y1="11.6153" x2="28.8211" y2="28.8216" gradientUnits="userSpaceOnUse">
<stop stop-color="#F25D69"/>
<stop offset="1" stop-color="#F6933F"/>
</linearGradient>
<linearGradient id="paint15_linear_1867_2814" x1="48.3844" y1="11.6153" x2="31.1781" y2="28.8216" gradientUnits="userSpaceOnUse">
<stop stop-color="#FAE417"/>
<stop offset="1" stop-color="#C9DB41"/>
</linearGradient>
<linearGradient id="paint16_linear_1867_2814" x1="28.8211" y1="31.1785" x2="11.6148" y2="48.3848" gradientUnits="userSpaceOnUse">
<stop stop-color="#CC8BBD"/>
<stop offset="1" stop-color="#9A90C4"/>
</linearGradient>
<clipPath id="clip0_1867_2814">
<rect width="60" height="60" rx="13.28" fill="white"/>
</clipPath>
</defs>
</svg>
