<svg width="60" height="60" viewBox="0 0 60 60" fill="none" xmlns="http://www.w3.org/2000/svg">
<rect width="60" height="60" rx="13.28" fill="url(#paint0_linear_1857_2021)"/>
<circle cx="30" cy="30" r="26.25" fill="#111111"/>
<path fill-rule="evenodd" clip-rule="evenodd" d="M29.8597 14.4136C29.8883 14.2577 30.1118 14.2577 30.1404 14.4136L30.5514 16.6539C30.7032 16.66 30.8542 16.6687 31.0046 16.6798L31.6733 14.5027C31.7199 14.3511 31.9418 14.3771 31.9521 14.5353L32.0997 16.8063C32.2499 16.8299 32.3992 16.856 32.5477 16.8846L33.4643 14.8014C33.5282 14.6563 33.7456 14.7079 33.7374 14.8662L33.62 17.1373C33.7665 17.1783 33.9119 17.2218 34.0563 17.2676L35.2084 15.3056C35.2887 15.1689 35.4987 15.2455 35.4722 15.4018L35.0914 17.6437C35.232 17.7015 35.3713 17.7616 35.5095 17.824L36.8821 16.0086C36.9777 15.8822 37.1774 15.9826 37.1328 16.1348L36.4937 18.3184C36.6263 18.392 36.7575 18.4678 36.8873 18.5457L38.4626 16.9009C38.5723 16.7864 38.759 16.9093 38.697 17.0553L37.8077 19.1513C37.9307 19.2396 38.052 19.3299 38.1718 19.4222L39.9287 17.9702C40.0509 17.8692 40.2221 18.0131 40.1436 18.1509L39.0161 20.1302C39.1279 20.232 39.2379 20.3357 39.3461 20.4411L41.2605 19.2023C41.3936 19.1161 41.5469 19.2789 41.4529 19.4066L40.1031 21.2417C40.2023 21.3557 40.2996 21.4713 40.395 21.5887L42.4399 20.5803C42.5821 20.5102 42.7155 20.6896 42.6074 20.8056L41.0541 22.471C41.1395 22.5957 41.2229 22.722 41.3042 22.8497L43.4511 22.0857C43.6005 22.0325 43.7122 22.2262 43.5913 22.3289L41.8561 23.8019C41.9265 23.9359 41.9947 24.0712 42.0607 24.2078L44.2804 23.698C44.435 23.6625 44.5234 23.8679 44.3914 23.9559L42.4975 25.2173C42.5518 25.3586 42.6037 25.501 42.6533 25.6445L44.9166 25.3956C45.0742 25.3782 45.1383 25.5925 44.997 25.6645L42.9689 26.6981C43.0062 26.8445 43.041 26.992 43.0735 27.1403L45.3511 27.1553C45.5097 27.1564 45.5485 27.3767 45.3997 27.4318L43.2636 28.2239C43.2835 28.3733 43.3009 28.5235 43.3158 28.6745L45.578 28.9535C45.7354 28.973 45.7484 29.1963 45.5943 29.2338L43.379 29.7733C43.3802 29.8488 43.3809 29.9244 43.3809 30.0002C43.3809 30.0757 43.3802 30.1511 43.379 30.2263L45.5943 30.7659C45.7484 30.8034 45.7354 31.0267 45.578 31.0461L43.3159 31.3252C43.301 31.4762 43.2836 31.6264 43.2637 31.7758L45.3997 32.5679C45.5484 32.623 45.5097 32.8433 45.3511 32.8443L43.0736 32.8594C43.0412 33.0077 43.0063 33.1552 42.969 33.3017L44.997 34.3352C45.1383 34.4072 45.0742 34.6215 44.9166 34.6041L42.6536 34.3552C42.604 34.4988 42.552 34.6412 42.4977 34.7826L44.3914 36.0438C44.5234 36.1317 44.435 36.3371 44.2804 36.3017L42.061 35.792C41.995 35.9286 41.9268 36.064 41.8563 36.198L43.5913 37.6708C43.7122 37.7734 43.6005 37.9672 43.4511 37.914L41.3045 37.1501C41.2232 37.2779 41.1398 37.4042 41.0544 37.529L42.6074 39.1941C42.7155 39.3101 42.5821 39.4895 42.4399 39.4194L40.3954 38.4112C40.3 38.5286 40.2026 38.6443 40.1034 38.7583L41.4529 40.5931C41.5469 40.7208 41.3936 40.8836 41.2605 40.7974L39.3466 39.5588C39.2383 39.6644 39.1282 39.7681 39.0164 39.8699L40.1436 41.8488C40.2221 41.9866 40.0509 42.1305 39.9287 42.0294L38.1722 40.5778C38.0524 40.6702 37.931 40.7606 37.808 40.849L38.697 42.9444C38.759 43.0903 38.5723 43.2133 38.4626 43.0988L36.8878 41.4544C36.7579 41.5324 36.6266 41.6082 36.4939 41.6819L37.1328 43.8649C37.1774 44.0171 36.9777 44.1175 36.8821 43.991L35.5099 42.1762C35.3717 42.2386 35.2322 42.2988 35.0915 42.3566L35.4722 44.5979C35.4987 44.7542 35.2887 44.8308 35.2084 44.6941L34.0567 42.7327C33.9122 42.7786 33.7666 42.822 33.62 42.863L33.7374 45.1335C33.7456 45.2918 33.5282 45.3434 33.4643 45.1983L32.548 43.1157C32.3994 43.1443 32.2499 43.1705 32.0997 43.1941L31.9521 45.4644C31.9418 45.6226 31.7199 45.6486 31.6733 45.497L31.0049 43.3205C30.8543 43.3317 30.7031 43.3404 30.5513 43.3465L30.1404 45.5861C30.1118 45.742 29.8883 45.742 29.8597 45.5861L29.4488 43.3465C29.2969 43.3404 29.1457 43.3317 28.9952 43.3206L28.3268 45.497C28.2802 45.6486 28.0583 45.6226 28.048 45.4644L27.9004 43.1942C27.7501 43.1706 27.6007 43.1444 27.4521 43.1158L26.5358 45.1983C26.4719 45.3434 26.2545 45.2918 26.2627 45.1335L26.3801 42.8632C26.2335 42.8221 26.0879 42.7787 25.9433 42.7328L24.7917 44.6941C24.7114 44.8308 24.5014 44.7542 24.5279 44.5979L24.9085 42.3568C24.7678 42.299 24.6284 42.2388 24.4901 42.1764L23.118 43.991C23.0224 44.1175 22.8227 44.0171 22.8672 43.8649L23.5062 41.6821C23.3734 41.6085 23.2421 41.5326 23.1122 41.4546L21.5375 43.0988C21.4278 43.2133 21.2411 43.0903 21.3031 42.9444L22.192 40.8492C22.069 40.7608 21.9475 40.6704 21.8277 40.578L20.0714 42.0294C19.9492 42.1305 19.778 41.9866 19.8565 41.8488L20.9835 39.8702C20.8717 39.7683 20.7616 39.6646 20.6533 39.559L18.7396 40.7974C18.6065 40.8836 18.4532 40.7208 18.5472 40.5931L19.8965 38.7586C19.7972 38.6446 19.6998 38.5288 19.6044 38.4114L17.5602 39.4194C17.418 39.4895 17.2846 39.3101 17.3927 39.1941L18.9455 37.5293C18.86 37.4045 18.7765 37.2781 18.6952 37.1502L16.549 37.914C16.3996 37.9672 16.2879 37.7734 16.4088 37.6708L18.1434 36.1983C18.073 36.0642 18.0047 35.9288 17.9387 35.7921L15.7197 36.3017C15.5651 36.3371 15.4767 36.1317 15.6087 36.0438L17.502 34.7828C17.4477 34.6414 17.3957 34.4989 17.3461 34.3552L15.0835 34.6041C14.9259 34.6215 14.8618 34.4072 15.0031 34.3352L17.0307 33.3019C16.9933 33.1553 16.9584 33.0078 16.926 32.8594L14.649 32.8443C14.4904 32.8433 14.4516 32.623 14.6004 32.5679L16.736 31.776C16.7161 31.6265 16.6987 31.4762 16.6838 31.3251L14.4221 31.0461C14.2647 31.0267 14.2517 30.8034 14.4058 30.7659L16.6207 30.2265C16.6194 30.1512 16.6188 30.0758 16.6188 30.0002C16.6188 29.9244 16.6194 29.8487 16.6207 29.7732L14.4058 29.2338C14.2517 29.1963 14.2647 28.973 14.4221 28.9535L16.6838 28.6745C16.6987 28.5235 16.7162 28.3732 16.7361 28.2237L14.6004 27.4318C14.4516 27.3767 14.4904 27.1564 14.649 27.1553L16.9262 27.1403C16.9586 26.9919 16.9935 26.8444 17.0308 26.6979L15.0031 25.6645C14.8618 25.5925 14.9259 25.3782 15.0835 25.3956L17.3463 25.6445C17.3959 25.5009 17.4479 25.3584 17.5022 25.217L15.6087 23.9559C15.4767 23.8679 15.5651 23.6625 15.7197 23.698L17.939 24.2077C18.005 24.071 18.0732 23.9357 18.1437 23.8017L16.4088 22.3289C16.2879 22.2262 16.3996 22.0325 16.549 22.0857L18.6956 22.8496C18.7769 22.7218 18.8603 22.5955 18.9457 22.4707L17.3927 20.8056C17.2846 20.6896 17.418 20.5102 17.5602 20.5803L19.6048 21.5885C19.7002 21.4711 19.7975 21.3555 19.8968 21.2415L18.5472 19.4066C18.4532 19.2789 18.6065 19.1161 18.7396 19.2023L20.6537 20.4409C20.762 20.3355 20.872 20.2318 20.9838 20.13L19.8565 18.1509C19.778 18.0131 19.9492 17.8692 20.0714 17.9702L21.8281 19.4221C21.9479 19.3297 22.0693 19.2393 22.1923 19.151L21.3031 17.0553C21.2411 16.9093 21.4278 16.7864 21.5375 16.9009L23.1126 18.5456C23.2424 18.4676 23.3737 18.3918 23.5064 18.3182L22.8672 16.1348C22.8227 15.9826 23.0224 15.8822 23.118 16.0086L24.4905 17.8238C24.6287 17.7615 24.7681 17.7013 24.9087 17.6436L24.5279 15.4018C24.5014 15.2455 24.7114 15.1689 24.7917 15.3056L25.9437 17.2674C26.0881 17.2216 26.2336 17.1782 26.3801 17.1372L26.2627 14.8662C26.2545 14.7079 26.4719 14.6563 26.5358 14.8014L27.4523 16.8845C27.6008 16.856 27.7502 16.8298 27.9004 16.8062L28.048 14.5353C28.0583 14.3771 28.2802 14.3511 28.3268 14.5027L28.9954 16.6798C29.1458 16.6687 29.2969 16.66 29.4487 16.6539L29.8597 14.4136ZM30.0002 41.2498C36.2134 41.2498 41.2502 36.213 41.2502 29.9998C41.2502 23.7866 36.2134 18.7498 30.0002 18.7498C23.787 18.7498 18.7502 23.7866 18.7502 29.9998C18.7502 36.213 23.787 41.2498 30.0002 41.2498Z" fill="url(#paint1_linear_1857_2021)"/>
<g filter="url(#filter0_d_1857_2021)">
<path fill-rule="evenodd" clip-rule="evenodd" d="M30.17 5.94943C30.1408 5.75351 29.8583 5.75351 29.8291 5.94943L29.2649 9.73957C28.9672 9.75018 28.6712 9.7672 28.377 9.7905L27.3767 6.09226C27.325 5.90106 27.0444 5.93386 27.0382 6.13183L26.9179 9.95923C26.6233 10.0041 26.3309 10.0554 26.0407 10.1129L24.619 6.55841C24.5454 6.3745 24.2705 6.43965 24.2873 6.63701L24.6119 10.4502C24.3247 10.5292 24.04 10.6143 23.7579 10.7055L21.934 7.34156C21.8395 7.16743 21.5741 7.26406 21.6137 7.45814L22.3787 11.2076C22.1029 11.3196 21.8301 11.4374 21.5605 11.561L19.358 8.43112C19.244 8.26914 18.9916 8.39593 19.0534 8.5841L20.2491 12.2209C19.9886 12.3641 19.7316 12.5128 19.4783 12.6669L16.926 9.81237C16.794 9.66471 16.5579 9.81996 16.6412 9.99968L18.252 13.4751C18.0102 13.6473 17.7724 13.8246 17.5388 14.0069L14.6708 11.4666C14.5225 11.3353 14.3061 11.5169 14.4097 11.6857L16.4137 14.9519C16.1938 15.1506 15.9782 15.3541 15.7671 15.5622L12.6228 13.3715C12.4603 13.2583 12.2664 13.4638 12.3889 13.6194L14.7586 16.6308C14.5631 16.8535 14.3723 17.0806 14.1866 17.3118L10.8099 15.5012C10.6353 15.4076 10.4666 15.6343 10.6063 15.7747L13.3084 18.4894C13.1399 18.7333 12.9766 18.9811 12.8186 19.2326L9.25645 17.8271C9.0722 17.7544 8.93094 17.999 9.08602 18.1223L12.0833 20.5036C11.9441 20.7655 11.8106 21.0309 11.6828 21.2995L7.98353 20.3175C7.79209 20.2667 7.68018 20.5261 7.84852 20.6305L11.1007 22.647C10.9932 22.9233 10.8915 23.2026 10.7958 23.4846L7.00834 22.9389C6.81229 22.9106 6.73126 23.1813 6.91058 23.2654L10.3754 24.8909C10.301 25.1776 10.2327 25.4667 10.1706 25.7581L6.34406 25.6557C6.14606 25.6504 6.097 25.9287 6.28487 25.9914L9.91732 27.2045C9.87695 27.4972 9.84282 27.792 9.81509 28.0886L5.99968 28.4313C5.80241 28.4491 5.78598 28.7311 5.97987 28.7716L9.73095 29.5553C9.72777 29.7031 9.72617 29.8514 9.72617 29.9999C9.72617 30.1485 9.72777 30.2967 9.73094 30.4445L5.97987 31.2282C5.78598 31.2687 5.80241 31.5507 5.99969 31.5685L9.81508 31.9112C9.84281 32.2078 9.87694 32.5026 9.91731 32.7953L6.28487 34.0084C6.097 34.0711 6.14606 34.3494 6.34406 34.3441L10.1706 34.2417C10.2326 34.5331 10.3009 34.8222 10.3754 35.1089L6.91058 36.7344C6.73126 36.8185 6.81229 37.0892 7.00834 37.0609L10.7958 36.5152C10.8914 36.7972 10.9931 37.0765 11.1007 37.3528L7.84852 39.3693C7.68018 39.4737 7.79209 39.7331 7.98353 39.6823L11.6828 38.7004C11.8106 38.969 11.9441 39.2343 12.0832 39.4962L9.08602 41.8775C8.93094 42.0008 9.0722 42.2454 9.25645 42.1727L12.8186 40.7672C12.9765 41.0187 13.1399 41.2665 13.3084 41.5104L10.6063 44.2251C10.4666 44.3655 10.6353 44.5921 10.8099 44.4986L14.1865 42.6881C14.3723 42.9193 14.563 43.1463 14.7585 43.369L12.3889 46.3804C12.2664 46.536 12.4603 46.7415 12.6228 46.6283L15.7671 44.4376C15.9781 44.6457 16.1937 44.8492 16.4137 45.0479L14.4097 48.3141C14.3061 48.4829 14.5225 48.6645 14.6708 48.5332L17.5387 45.9929C17.7724 46.1753 18.0102 46.3526 18.2519 46.5248L16.6412 50.0001C16.5579 50.1798 16.794 50.3351 16.926 50.1874L19.4783 47.333C19.7316 47.4871 19.9886 47.6358 20.2491 47.7789L19.0534 51.4157C18.9916 51.6039 19.244 51.7307 19.358 51.5687L21.5605 48.4388C21.8301 48.5624 22.1029 48.6803 22.3787 48.7923L21.6137 52.5417C21.5741 52.7357 21.8395 52.8324 21.934 52.6582L23.7579 49.2944C24.0399 49.3855 24.3246 49.4707 24.6119 49.5497L24.2873 53.3628C24.2705 53.5601 24.5454 53.6253 24.619 53.4414L26.0407 49.887C26.3309 49.9445 26.6233 49.9957 26.9179 50.0407L27.0382 53.868C27.0444 54.0659 27.325 54.0987 27.3767 53.9075L28.3769 50.2094C28.6712 50.2327 28.9672 50.2497 29.2649 50.2603L29.8291 54.0504C29.8583 54.2463 30.1408 54.2463 30.17 54.0504L30.7342 50.2603C31.0319 50.2497 31.3279 50.2327 31.6222 50.2094L32.6224 53.9075C32.6741 54.0987 32.9547 54.0659 32.9609 53.868L33.0812 50.0407C33.3758 49.9958 33.6682 49.9445 33.9585 49.8871L35.3801 53.4414C35.4537 53.6253 35.7286 53.5601 35.7118 53.3628L35.3872 49.5497C35.6745 49.4707 35.9592 49.3856 36.2412 49.2944L38.0652 52.6582C38.1596 52.8324 38.4251 52.7357 38.3855 52.5417L37.6204 48.7923C37.8962 48.6803 38.169 48.5625 38.4387 48.4389L40.6411 51.5687C40.7551 51.7307 41.0076 51.6039 40.9457 51.4157L39.75 47.779C40.0105 47.6358 40.2675 47.4871 40.5209 47.333L43.0731 50.1874C43.2051 50.3351 43.4412 50.1798 43.3579 50.0001L41.7472 46.5248C41.989 46.3526 42.2268 46.1753 42.4605 45.993L45.3283 48.5332C45.4766 48.6645 45.6931 48.4829 45.5895 48.3141L43.5854 45.048C43.8054 44.8493 44.021 44.6458 44.2321 44.4377L47.3763 46.6283C47.5388 46.7415 47.7327 46.536 47.6102 46.3804L45.2406 43.3691C45.4362 43.1464 45.6269 42.9193 45.8127 42.6881L49.1892 44.4986C49.3638 44.5921 49.5325 44.3655 49.3928 44.2251L46.6908 41.5105C46.8593 41.2666 47.0226 41.0188 47.1806 40.7672L50.7427 42.1727C50.9269 42.2454 51.0682 42.0008 50.9131 41.8775L47.916 39.4963C48.0551 39.2343 48.1886 38.969 48.3164 38.7004L52.0156 39.6823C52.207 39.7331 52.3189 39.4737 52.1506 39.3693L48.8985 37.3529C49.0061 37.0765 49.1078 36.7973 49.2034 36.5152L52.9908 37.0609C53.1868 37.0892 53.2679 36.8185 53.0885 36.7344L49.6238 35.1089C49.6983 34.8222 49.7666 34.5331 49.8286 34.2417L53.6551 34.3441C53.8531 34.3494 53.9021 34.0711 53.7142 34.0084L50.0819 32.7953C50.1223 32.5026 50.1564 32.2078 50.1841 31.9112L53.9994 31.5685C54.1967 31.5507 54.2131 31.2687 54.0193 31.2282L50.2683 30.4445C50.2714 30.2967 50.273 30.1485 50.273 29.9999C50.273 29.8514 50.2714 29.7031 50.2683 29.5553L54.0193 28.7716C54.2131 28.7311 54.1967 28.4491 53.9994 28.4313L50.1841 28.0886C50.1564 27.792 50.1223 27.4972 50.0819 27.2045L53.7142 25.9914C53.9021 25.9287 53.8531 25.6504 53.6551 25.6557L49.8286 25.7581C49.7665 25.4667 49.6982 25.1776 49.6238 24.8909L53.0885 23.2654C53.2679 23.1813 53.1868 22.9106 52.9908 22.9389L49.2034 23.4846C49.1077 23.2025 49.006 22.9233 48.8985 22.6469L52.1506 20.6305C52.3189 20.5261 52.207 20.2667 52.0156 20.3175L48.3164 21.2994C48.1886 21.0308 48.055 20.7655 47.9159 20.5035L50.9131 18.1223C51.0682 17.999 50.9269 17.7544 50.7427 17.8271L47.1805 19.2326C47.0226 18.9811 46.8593 18.7333 46.6907 18.4894L49.3928 15.7747C49.5325 15.6343 49.3638 15.4076 49.1892 15.5012L45.8126 17.3117C45.6268 17.0805 45.4361 16.8535 45.2406 16.6307L47.6102 13.6194C47.7327 13.4638 47.5388 13.2583 47.3763 13.3715L44.2321 15.5622C44.021 15.3541 43.8054 15.1506 43.5854 14.9519L45.5895 11.6857C45.6931 11.5169 45.4766 11.3353 45.3283 11.4666L42.4604 14.0069C42.2267 13.8245 41.9889 13.6472 41.7472 13.4751L43.3579 9.99967C43.4412 9.81996 43.2051 9.66471 43.0731 9.81237L40.5208 12.6669C40.2675 12.5128 40.0105 12.364 39.75 12.2209L40.9457 8.5841C41.0076 8.39593 40.7551 8.26913 40.6411 8.43112L38.4386 11.561C38.169 11.4374 37.8962 11.3195 37.6204 11.2076L38.3855 7.45814C38.4251 7.26406 38.1596 7.16743 38.0652 7.34155L36.2412 10.7055C35.9592 10.6143 35.6745 10.5292 35.3872 10.4502L35.7118 6.63701C35.7286 6.43965 35.4537 6.3745 35.3801 6.55841L33.9584 10.1128C33.6682 10.0554 33.3758 10.0041 33.0812 9.95922L32.9609 6.13183C32.9547 5.93386 32.6741 5.90106 32.6224 6.09226L31.6222 9.79049C31.3279 9.76719 31.0319 9.75017 30.7342 9.73957L30.17 5.94943ZM17.3911 17.1549C18.8025 15.7794 21.0457 16.3202 22.0449 18.0189L27.9107 27.9916C28.5479 29.0749 28.5479 30.4184 27.9107 31.5016L21.8561 41.7953C20.8472 43.5105 18.5738 44.0404 17.1723 42.6277C13.9433 39.3729 11.9525 34.9159 11.9525 29.9998C11.9525 24.9735 14.0335 20.4272 17.3911 17.1549ZM32.7873 30.8231C31.5606 30.8231 30.4255 31.4723 29.8036 32.5297L23.718 42.876C22.7073 44.5943 23.3534 46.8425 25.2743 47.3756C26.8501 47.8128 28.5121 48.0467 30.2294 48.0467C38.7859 48.0467 45.9691 42.2408 47.9589 34.4012C48.4444 32.4883 46.8386 30.8231 44.8651 30.8231H32.7873ZM44.7312 28.67C46.7432 28.67 48.3602 26.9406 47.7983 25.0086C45.6055 17.4693 38.5699 11.9529 30.2294 11.9529C28.6203 11.9529 27.0597 12.1582 25.5732 12.5438C23.6248 13.0491 22.954 15.3183 23.9745 17.0533L29.8036 26.9635C30.4255 28.0208 31.5606 28.67 32.7872 28.67H44.7312ZM30.0105 30.9668C30.5606 30.9668 31.0066 30.5209 31.0066 29.9707C31.0066 29.4206 30.5606 28.9747 30.0105 28.9747C29.4603 28.9747 29.0144 29.4206 29.0144 29.9707C29.0144 30.5209 29.4603 30.9668 30.0105 30.9668Z" fill="url(#paint2_linear_1857_2021)"/>
</g>
<defs>
<filter id="filter0_d_1857_2021" x="4.98123" y="5.80249" width="50.0366" height="50.1179" filterUnits="userSpaceOnUse" color-interpolation-filters="sRGB">
<feFlood flood-opacity="0" result="BackgroundImageFix"/>
<feColorMatrix in="SourceAlpha" type="matrix" values="0 0 0 0 0 0 0 0 0 0 0 0 0 0 0 0 0 0 127 0" result="hardAlpha"/>
<feOffset dy="0.861538"/>
<feGaussianBlur stdDeviation="0.430769"/>
<feColorMatrix type="matrix" values="0 0 0 0 0 0 0 0 0 0 0 0 0 0 0 0 0 0 0.45 0"/>
<feBlend mode="normal" in2="BackgroundImageFix" result="effect1_dropShadow_1857_2021"/>
<feBlend mode="normal" in="SourceGraphic" in2="effect1_dropShadow_1857_2021" result="shape"/>
</filter>
<linearGradient id="paint0_linear_1857_2021" x1="30" y1="0" x2="30" y2="60" gradientUnits="userSpaceOnUse">
<stop stop-color="#313131"/>
<stop offset="1" stop-color="#141514"/>
</linearGradient>
<linearGradient id="paint1_linear_1857_2021" x1="30" y1="14.9998" x2="30" y2="44.9997" gradientUnits="userSpaceOnUse">
<stop stop-color="#B4B4B8"/>
<stop offset="1" stop-color="#B4B4B8"/>
</linearGradient>
<linearGradient id="paint2_linear_1857_2021" x1="30.0192" y1="6.15745" x2="30.2887" y2="54.2268" gradientUnits="userSpaceOnUse">
<stop offset="0.193294" stop-color="#D4D4D8"/>
<stop offset="0.830878" stop-color="#9D9DA1"/>
</linearGradient>
</defs>
</svg>
